<?xml version="1.0" encoding="UTF-8" standalone="no"?>
<!-- Created with Inkscape (http://www.inkscape.org/) -->

<svg
   xmlns:dc="http://purl.org/dc/elements/1.1/"
   xmlns:cc="http://creativecommons.org/ns#"
   xmlns:rdf="http://www.w3.org/1999/02/22-rdf-syntax-ns#"
   xmlns:svg="http://www.w3.org/2000/svg"
   xmlns="http://www.w3.org/2000/svg"
   xmlns:sodipodi="http://sodipodi.sourceforge.net/DTD/sodipodi-0.dtd"
   xmlns:inkscape="http://www.inkscape.org/namespaces/inkscape"
   width="744.09448819"
   height="1052.3622047"
   id="svg2"
   version="1.1"
   inkscape:version="0.48.3.1 r9886"
   sodipodi:docname="paintatron_logo.svg">
  <defs
     id="defs4" />
  <sodipodi:namedview
     id="base"
     pagecolor="#ffffff"
     bordercolor="#666666"
     borderopacity="1.0"
     inkscape:pageopacity="0.0"
     inkscape:pageshadow="2"
     inkscape:zoom="0.66626726"
     inkscape:cx="421.51221"
     inkscape:cy="643.81995"
     inkscape:document-units="px"
     inkscape:current-layer="layer1"
     showgrid="false"
     inkscape:window-width="1024"
     inkscape:window-height="713"
     inkscape:window-x="-2"
     inkscape:window-y="-3"
     inkscape:window-maximized="1" />
  <metadata
     id="metadata7">
    <rdf:RDF>
      <cc:Work
         rdf:about="">
        <dc:format>image/svg+xml</dc:format>
        <dc:type
           rdf:resource="http://purl.org/dc/dcmitype/StillImage" />
        <dc:title />
      </cc:Work>
    </rdf:RDF>
  </metadata>
  <g
     inkscape:label="Layer 1"
     inkscape:groupmode="layer"
     id="layer1">
    <path
       style="fill:none;stroke:#000000;stroke-width:0.47891092px;stroke-linecap:butt;stroke-linejoin:miter;stroke-opacity:1"
       d="m 445.98058,1065.0331 11.57179,14.041 6.23098,-6.4804 8.01125,5.4004 10.68166,-2.1602 9.79153,3.2402 11.57182,-3.2402 8.90138,3.2402 8.90139,-3.2402 8.90138,2.1602 13.35209,-1.0801 8.01125,3.2402 10.68167,1.0801 16.91263,-2.1602 3.56056,-5.4004 1.78028,6.4805 10.68167,-1.0801 16.0225,0 14.24222,5.4004 10.68167,-6.4804 10.68166,2.1601 8.90139,0"
       id="path3121-8"
       inkscape:connector-curvature="0" />
    <path
       style="fill:none;stroke:#000000;stroke-width:0.47891092px;stroke-linecap:butt;stroke-linejoin:miter;stroke-opacity:1"
       d="m 658.72377,1063.953 -4.4507,17.2813"
       id="path3123-9"
       inkscape:connector-curvature="0" />
    <path
       style="fill:#1a1a1a"
       d="m 617.70366,1080.5185 c -6.23258,-2.4916 -7.54409,-2.631 -19.7432,-2.0991 l -13.06716,0.5697 -0.57819,-3.1942 c -0.70435,-3.8912 -0.90078,-3.9158 -3.37746,-0.4221 -1.58049,2.2295 -3.18398,2.9627 -8.19108,3.745 -9.46807,1.4793 -16.42933,1.2331 -22.28392,-0.7883 -3.55418,-1.2271 -7.8027,-1.7385 -12.8715,-1.5494 -4.1614,0.1552 -9.36871,-0.2125 -11.5718,-0.8172 -3.08799,-0.8476 -5.06502,-0.7265 -8.63005,0.5287 -4.09203,1.4409 -5.13366,1.4448 -9.04752,0.034 -3.90044,-1.4054 -5.10494,-1.405 -10.19361,0 -5.10058,1.4117 -6.3602,1.4103 -10.8496,-0.012 -3.99374,-1.2654 -6.19784,-1.3702 -10.31457,-0.4903 -4.92731,1.0531 -5.47702,0.9473 -9.33849,-1.7986 l -4.10299,-2.9176 -2.41304,2.8051 c -1.32717,1.5429 -2.81325,2.8052 -3.30239,2.8052 -0.48914,0 -2.20356,-1.6453 -3.80981,-3.6561 l -2.92046,-3.6561 21.6613,-0.6533 c 41.6796,-1.2569 184.11164,-2.021 184.11164,-0.9878 0,0.5544 -0.63849,3.2817 -1.41888,6.0607 l -1.41888,5.0527 -4.24552,0 c -2.33504,0 -6.32625,-0.4787 -8.86935,-1.064 -4.27092,-0.9828 -5.02558,-0.8179 -9.88765,2.1602 -2.89509,1.7733 -5.57566,3.176 -5.9568,3.1171 -0.38114,-0.059 -3.6972,-1.308 -7.36902,-2.7759 z"
       id="path3135-2"
       inkscape:connector-curvature="0" />
    <g
       id="g3496"
       transform="matrix(0.78860255,0.53019921,-0.53497828,0.78155781,513.9078,74.719216)">
      <path
         inkscape:connector-curvature="0"
         id="path3099"
         d="m 369.25497,523.93561 -99.69554,1.08008 0.89013,-20.52152 2.67041,-11.88088 4.4507,-9.72073 8.90139,-9.72071 16.91264,-2.16017 15.13235,-4.32032 12.46195,-10.8008 9.79152,-11.88088 4.4507,-11.88089 1.78028,-15.12111 -2.67042,-23.76177 -4.45068,-30.24224 -0.89014,-27.002 1.78026,-21.60161 2.67042,-16.20121 5.34084,-15.12111 6.23097,-10.80081 8.01126,-8.64064 9.79152,0"
         style="fill:none;stroke:#000000;stroke-width:0.47891092px;stroke-linecap:butt;stroke-linejoin:miter;stroke-opacity:1" />
      <path
         inkscape:connector-curvature="0"
         id="path3099-3"
         d="m 367.47469,523.93561 99.69556,1.08008 -0.89014,-20.52152 -2.67042,-11.88088 -4.45069,-9.72073 -8.90139,-9.72071 -16.91263,-2.16017 -15.13237,-4.32032 -12.46194,-10.8008 -9.79153,-11.88088 -4.4507,-11.88089 -1.78027,-15.12111 2.67041,-23.76177 4.4507,-30.24224 0.89014,-27.002 -1.78028,-21.60161 -2.67042,-16.20121 -5.34084,-15.12111 -6.23096,-10.80081 -8.01125,-8.64064 -9.79152,0"
         style="fill:none;stroke:#000000;stroke-width:0.47891092px;stroke-linecap:butt;stroke-linejoin:miter;stroke-opacity:1" />
      <path
         inkscape:connector-curvature="0"
         id="path3119"
         d="m 270.53245,526.08993 -9.87413,186.85934 212.74261,-2.14781 -7.18118,-185.78542"
         style="fill:none;stroke:#000000;stroke-width:0.47954983px;stroke-linecap:butt;stroke-linejoin:miter;stroke-opacity:1" />
      <path
         inkscape:connector-curvature="0"
         id="path3121"
         d="m 259.7679,709.70938 11.57179,14.04105 6.23098,-6.48048 8.01125,5.4004 10.68166,-2.16016 9.79153,3.24024 11.57182,-3.24024 8.90138,3.24024 8.90139,-3.24024 8.90138,2.16016 13.35209,-1.08009 8.01125,3.24024 10.68167,1.08009 16.91263,-2.16016 3.56056,-5.40041 1.78028,6.48048 10.68167,-1.08007 16.0225,0 14.24222,5.40039 10.68167,-6.48047 10.68166,2.16015 8.90139,0"
         style="fill:none;stroke:#000000;stroke-width:0.47891092px;stroke-linecap:butt;stroke-linejoin:miter;stroke-opacity:1" />
      <path
         inkscape:connector-curvature="0"
         id="path3125"
         d="m 261.93851,710.65606 c -0.59729,-1.95452 9.03751,-183.48141 9.78678,-184.39057 0.82737,-1.0039 192.41141,-0.87391 193.23969,0.13113 0.84739,1.02821 7.76576,177.43408 7.08733,180.71398 -0.4826,2.33311 -0.7592,2.3668 -24.75285,3.01634 -13.34564,0.36128 -60.40969,0.96105 -104.58679,1.33285 -67.56913,0.56866 -80.39378,0.44104 -80.77416,-0.80373 z"
         style="fill:#1a1a1a" />
      <path
         inkscape:connector-curvature="0"
         id="path3127"
         d="m 270.70874,513.82353 c 1.00635,-17.08817 4.20031,-26.85991 11.33619,-34.68239 4.41809,-4.84321 5.81937,-5.47879 14.14494,-6.41577 3.67182,-0.41323 10.2811,-1.75846 14.68728,-2.98939 6.94437,-1.94001 8.95959,-3.07082 15.13237,-8.49124 13.87001,-12.17952 18.9074,-21.11985 20.81221,-36.93746 0.95365,-7.91905 -0.60031,-24.78584 -4.49225,-48.75934 -2.76458,-17.02924 -2.80448,-50.15217 -0.0797,-66.12532 3.12733,-18.33265 9.43187,-33.02301 17.73715,-41.32973 2.944,-2.94451 4.04295,-3.3695 8.71285,-3.3695 l 5.34393,0 5.57392,7.06941 c 7.20891,9.14311 12.13315,21.37714 14.69281,36.5036 2.81798,16.65308 2.79837,50.32364 -0.0397,68.21528 -4.24536,26.76312 -5.32974,39.49535 -4.15457,48.78099 1.97641,15.61652 7.07761,24.38186 21.40307,36.77661 5.36513,4.64204 7.51952,5.77025 14.6873,7.69137 4.61995,1.23826 10.80328,2.5442 13.74074,2.90208 9.11508,1.11055 10.40481,1.70056 14.9202,6.82543 7.22037,8.19497 10.22422,17.37533 11.05793,33.79533 l 0.52818,10.40242 -98.16283,0 -98.16284,0 0.58081,-9.86238 -3e-5,0 z"
         style="fill:#800000" />
      <path
         inkscape:connector-curvature="0"
         id="path3135"
         d="m 431.49098,725.19478 c -6.23258,-2.49156 -7.54409,-2.63099 -19.7432,-2.09911 l -13.06716,0.56972 -0.57819,-3.19421 c -0.70435,-3.89122 -0.90078,-3.91577 -3.37746,-0.42204 -1.58049,2.2295 -3.18398,2.96262 -8.19108,3.74494 -9.46807,1.47933 -16.42933,1.23308 -22.28392,-0.78826 -3.55418,-1.22712 -7.8027,-1.73854 -12.8715,-1.54944 -4.1614,0.15526 -9.36871,-0.21249 -11.5718,-0.81721 -3.08799,-0.84762 -5.06502,-0.72648 -8.63005,0.52877 -4.09203,1.44081 -5.13366,1.44478 -9.04752,0.0344 -3.90044,-1.40546 -5.10494,-1.40507 -10.19361,0.004 -5.10058,1.4117 -6.3602,1.41029 -10.8496,-0.0123 -3.99374,-1.26545 -6.19784,-1.37023 -10.31457,-0.49035 -4.92731,1.05313 -5.47702,0.94726 -9.33849,-1.79859 l -4.10299,-2.9176 -2.41304,2.80514 c -1.32717,1.54283 -2.81325,2.80515 -3.30239,2.80515 -0.48914,0 -2.20356,-1.64525 -3.80981,-3.65612 l -2.92046,-3.65611 21.6613,-0.65323 c 41.6796,-1.25691 184.11164,-2.02108 184.11164,-0.98779 0,0.55433 -0.63849,3.28162 -1.41888,6.06064 l -1.41888,5.05276 -4.24552,0 c -2.33504,0 -6.32625,-0.47879 -8.86935,-1.064 -4.27092,-0.9828 -5.02558,-0.81792 -9.88765,2.16017 -2.89509,1.77328 -5.57566,3.17598 -5.9568,3.11708 -0.38114,-0.0589 -3.6972,-1.30804 -7.36902,-2.7759 z"
         style="fill:#1a1a1a" />
      <path
         inkscape:connector-curvature="0"
         id="path3137"
         d="m 271.33969,504.49417 193.16014,0"
         style="fill:#4d4d4d;stroke:#000000;stroke-width:0.47891092px;stroke-linecap:butt;stroke-linejoin:miter;stroke-opacity:1" />
      <path
         inkscape:connector-curvature="0"
         id="path3139"
         d="m 300.71428,711.86954 8.01125,-158.77177"
         style="fill:none;stroke:#000000;stroke-width:0.47891092px;stroke-linecap:butt;stroke-linejoin:miter;stroke-opacity:1" />
      <path
         inkscape:connector-curvature="0"
         id="path3141"
         d="m 333.64942,710.78947 1.78028,-78.84585"
         style="fill:#666666;stroke:#000000;stroke-width:0.47891092px;stroke-linecap:butt;stroke-linejoin:miter;stroke-opacity:1" />
      <path
         inkscape:connector-curvature="0"
         id="path3143"
         d="m 370.14511,710.78947 0,-104.76777"
         style="fill:#808080;stroke:#000000;stroke-width:0.47891092px;stroke-linecap:butt;stroke-linejoin:miter;stroke-opacity:1" />
      <path
         inkscape:connector-curvature="0"
         id="path3145"
         d="m 427.11401,708.6293 -4.4507,-152.29129"
         style="fill:none;stroke:#000000;stroke-width:0.47891092px;stroke-linecap:butt;stroke-linejoin:miter;stroke-opacity:1" />
      <path
         inkscape:connector-curvature="0"
         id="path3147"
         d="M 395.95914,710.78947 391.50845,539.05672"
         style="fill:none;stroke:#000000;stroke-width:0.47891092px;stroke-linecap:butt;stroke-linejoin:miter;stroke-opacity:1" />
      <path
         inkscape:connector-curvature="0"
         id="path3149"
         d="m 350.56206,708.6293 0.89014,-24.84184"
         style="fill:none;stroke:#000000;stroke-width:0.47891092px;stroke-linecap:butt;stroke-linejoin:miter;stroke-opacity:1" />
      <path
         inkscape:connector-curvature="0"
         id="path3151"
         d="m 316.73679,709.70938 2.6704,-38.88288"
         style="fill:none;stroke:#000000;stroke-width:0.47891092px;stroke-linecap:butt;stroke-linejoin:miter;stroke-opacity:1" />
      <path
         inkscape:connector-curvature="0"
         id="path3153"
         d="m 276.68053,710.78947 4.4507,-73.44545"
         style="fill:none;stroke:#000000;stroke-width:0.47891092px;stroke-linecap:butt;stroke-linejoin:miter;stroke-opacity:1" />
      <path
         inkscape:connector-curvature="0"
         id="path3155"
         d="M 456.48859,708.6293 448.47734,543.37705"
         style="fill:none;stroke:#000000;stroke-width:0.47891092px;stroke-linecap:butt;stroke-linejoin:miter;stroke-opacity:1" />
      <path
         inkscape:connector-curvature="0"
         id="path3157"
         d="m 376.37609,708.6293 1.78028,-158.77177"
         style="fill:none;stroke:#000000;stroke-width:0.47891092px;stroke-linecap:butt;stroke-linejoin:miter;stroke-opacity:1" />
      <path
         inkscape:connector-curvature="0"
         id="path3159"
         d="m 313.17623,708.6293 5.34082,-116.64865"
         style="fill:none;stroke:#000000;stroke-width:0.47891092px;stroke-linecap:butt;stroke-linejoin:miter;stroke-opacity:1" />
      <path
         inkscape:connector-curvature="0"
         id="path3161"
         d="m 420.88303,702.14882 -2.67041,-43.2032"
         style="fill:none;stroke:#000000;stroke-width:0.47891092px;stroke-linecap:butt;stroke-linejoin:miter;stroke-opacity:1" />
      <path
         transform="matrix(0.43476609,0,0,0.52753813,203.68914,236.63429)"
         d="m 393.10026,85.990685 c 0,6.784477 -5.95823,12.284383 -13.30808,12.284383 -7.34986,0 -13.30809,-5.499906 -13.30809,-12.284383 0,-6.784478 5.95823,-12.284384 13.30809,-12.284384 7.34985,0 13.30808,5.499906 13.30808,12.284384 z"
         sodipodi:ry="12.284384"
         sodipodi:rx="13.308082"
         sodipodi:cy="85.990685"
         sodipodi:cx="379.79218"
         id="path3165"
         style="fill:#000000"
         sodipodi:type="arc" />
    </g>
    <path
       sodipodi:type="arc"
       style="fill:#000000"
       id="path3683"
       sodipodi:cx="409.47946"
       sodipodi:cy="368.53149"
       sodipodi:rx="233.40329"
       sodipodi:ry="55.279724"
       d="m 642.88275,368.53149 a 233.40329,55.279724 0 1 1 -466.80658,0 233.40329,55.279724 0 1 1 466.80658,0 z" />
    <path
       style="fill:none;stroke:#000000;stroke-width:1px;stroke-linecap:butt;stroke-linejoin:miter;stroke-opacity:1"
       d="m 178.12356,362.38931 -4.09479,362.38931 26.61616,28.66357 51.18493,14.33178 65.51671,8.18958 28.66356,0"
       id="path3687"
       inkscape:connector-curvature="0" />
    <path
       style="fill:none;stroke:#000000;stroke-width:1px;stroke-linecap:butt;stroke-linejoin:miter;stroke-opacity:1"
       d="m 640.83534,366.48411 -2.0474,114.65424"
       id="path3697"
       inkscape:connector-curvature="0" />
    <path
       style="fill:none;stroke:#000000;stroke-width:1px;stroke-linecap:butt;stroke-linejoin:miter;stroke-opacity:1"
       d="m 640.83534,558.93945 -10.23699,176.07616 -12.28438,22.52137 -32.75836,22.52137 -22.52137,10.23699"
       id="path3699"
       inkscape:connector-curvature="0" />
    <path
       style="fill:#008080"
       d="m 280.32384,769.95881 c -15.20192,-2.08618 -38.6958,-6.73363 -52.20862,-10.32763 l -24.56877,-6.53457 -13.959,-14.48906 -13.95899,-14.48905 1.18893,-134.10452 c 0.65391,-73.75748 1.73658,-150.89032 2.40594,-171.4063 l 1.21701,-37.30179 6.43456,4.85399 c 18.25438,13.7704 62.63485,25.84446 122.3101,33.27543 42.16757,5.25085 158.08218,5.25085 200.24974,0 62.40571,-7.77098 109.90908,-21.02084 124.79744,-34.80911 l 4.82711,-4.47043 -0.77578,48.2941 -0.7758,48.2941 -15.49329,15.17521 c -18.65558,18.27257 -27.45834,31.13554 -45.84685,66.99333 -15.7232,30.6604 -24.80011,40.68325 -40.69323,44.93402 -13.85926,3.70679 -20.48165,3.18309 -35.44446,-2.80299 -20.80751,-8.32431 -33.24019,-3.99015 -48.26866,16.82696 -3.64203,5.04487 -30.80678,40.91376 -60.36607,79.70864 -29.5593,38.79486 -53.74418,71.92312 -53.74418,73.61834 0,4.20083 -20.99551,3.74717 -57.32713,-1.23867 z"
       id="path3701"
       inkscape:connector-curvature="0" />
    <path
       style="fill:#999999"
       d="m 571.05425,783.10975 c 0,-1.6113 8.80758,-15.67676 26.96964,-43.06973 16.96951,-25.5943 20.1205,-32.86848 20.1205,-46.44895 0,-9.9909 -0.49819,-10.99352 -8.98937,-18.09127 -12.0111,-10.04004 -17.80402,-22.4131 -18.1617,-38.79148 -0.36692,-16.80218 2.68838,-22.40751 27.15107,-49.81192 16.51281,-18.49854 19.52883,-21.068 19.97042,-17.01357 0.28608,2.62662 -1.62648,40.74873 -4.25014,84.71578 l -4.77029,79.94012 -5.94287,10.919 c -4.86373,8.93628 -9.20258,13.11084 -23.89427,22.9895 -17.44936,11.73292 -28.20299,17.32365 -28.20299,14.66252 z"
       id="path3703"
       inkscape:connector-curvature="0" />
    <path
       style="fill:#999999"
       d="m 281.34754,769.00902 c -21.07284,-3.23266 -52.35409,-9.85638 -68.00292,-14.39943 -9.03102,-2.62181 -12.69564,-5.36713 -23.78584,-17.8189 l -13.11002,-14.71958 1.77632,-159.69699 c 0.97697,-87.83334 2.29831,-163.64516 2.9363,-168.4707 l 1.15998,-8.77373 10.61254,6.01273 c 19.45062,11.02009 58.21126,20.99334 109.91131,28.28056 37.23721,5.24866 175.69212,5.24866 212.92932,0 53.22799,-7.50259 95.26212,-18.61413 113.02136,-29.8767 l 9.61145,-6.0954 -1.20848,46.46628 -1.20848,46.46628 -16.79045,17.50952 c -18.55067,19.3451 -24.70404,28.30202 -44.07787,64.16022 -7.27966,13.47364 -16.9625,28.15306 -21.68609,32.87665 -13.75714,13.75711 -31.20659,16.825 -53.01692,9.32114 -23.43328,-8.06224 -31.78707,-4.81065 -51.63694,20.09889 -15.76567,19.78429 -88.4482,116.52104 -103.73241,138.06255 l -9.80556,13.81993 -17.73501,-0.19839 c -9.75426,-0.10899 -26.02697,-1.47024 -36.16159,-3.02493 z"
       id="path3705"
       inkscape:connector-curvature="0" />
    <path
       style="fill:#999999"
       d="M 335.60357,420.01371 C 223.27195,409.60693 161.26358,384.52352 182.16882,357.94682 c 5.21876,-6.63458 28.6071,-17.88458 49.01749,-23.57784 90.55766,-25.26011 253.69785,-26.21433 348.02602,-2.03563 63.11794,16.17873 79.18901,38.69716 41.31482,57.88947 -22.78049,11.54374 -60.18887,20.79749 -108.84742,26.92569 -30.02571,3.78153 -145.84244,5.66616 -176.07616,2.8652 z"
       id="path3707"
       inkscape:connector-curvature="0" />
    <path
       style="fill:none;stroke:#000000;stroke-width:1px;stroke-linecap:butt;stroke-linejoin:miter;stroke-opacity:1"
       d="m 204.73972,391.05287 30.71096,-16.37917 71.65891,-14.33179 85.99068,-6.14219 81.89589,2.0474 96.22767,18.42658 28.66356,16.37917 2.0474,8.18959"
       id="path3709"
       inkscape:connector-curvature="0" />
    <path
       style="fill:#00ff00"
       d="m 323.31919,417.74664 c -45.87727,-5.3927 -91.16542,-14.70146 -110.57464,-22.72808 l -7.1507,-2.95716 16.37917,-8.18813 c 13.60816,-6.80287 22.78716,-9.43317 54.25603,-15.54744 46.36471,-9.00848 96.53208,-12.58801 158.67329,-11.32164 40.60396,0.82746 45.55753,1.37762 89.06178,9.89147 42.16041,8.25085 47.26744,9.71604 60.2307,17.27988 7.79032,4.54554 14.51686,9.32665 14.94784,10.62469 2.36687,7.12861 -64.03407,19.99704 -119.93637,23.24354 -41.08153,2.38579 -134.57881,2.20758 -155.8871,-0.29713 z"
       id="path3711"
       inkscape:connector-curvature="0" />
    <path
       style="fill:none;stroke:#000000;stroke-width:1px;stroke-linecap:butt;stroke-linejoin:miter;stroke-opacity:1"
       d="m 270.25644,407.43205 -4.0948,112.60685 -8.18959,10.23699 22.52137,0 -4.09479,-18.42658"
       id="path3713"
       inkscape:connector-curvature="0" />
    <path
       style="fill:none;stroke:#000000;stroke-width:1px;stroke-linecap:butt;stroke-linejoin:miter;stroke-opacity:1"
       d="m 280.49342,411.52685 0,4.09479 -4.09479,110.55945"
       id="path3715"
       inkscape:connector-curvature="0" />
    <path
       style="fill:none;stroke:#000000;stroke-width:1px;stroke-linecap:butt;stroke-linejoin:miter;stroke-opacity:1"
       d="m 307.10959,415.62164 0,67.56411"
       id="path3717"
       inkscape:connector-curvature="0" />
    <path
       style="fill:none;stroke:#000000;stroke-width:1px;stroke-linecap:butt;stroke-linejoin:miter;stroke-opacity:1"
       d="m 321.44137,489.32794 2.04739,-73.7063"
       id="path3719"
       inkscape:connector-curvature="0" />
    <path
       style="fill:none;stroke:#000000;stroke-width:1px;stroke-linecap:butt;stroke-linejoin:miter;stroke-opacity:1"
       d="m 241.59287,403.33726 6.1422,28.66356"
       id="path3721"
       inkscape:connector-curvature="0" />
    <path
       style="fill:none;stroke:#000000;stroke-width:1px;stroke-linecap:butt;stroke-linejoin:miter;stroke-opacity:1"
       d="m 260.01945,429.95342 0,-2.0474 0,-18.42657"
       id="path3723"
       inkscape:connector-curvature="0" />
    <path
       style="fill:none;stroke:#000000;stroke-width:1px;stroke-linecap:butt;stroke-linejoin:miter;stroke-opacity:1"
       d="m 246.14747,427.98812 13.50809,-1.5009"
       id="path3727"
       inkscape:connector-curvature="0" />
    <path
       style="fill:none;stroke:#000000;stroke-width:1px;stroke-linecap:butt;stroke-linejoin:miter;stroke-opacity:1"
       d="m 304.68254,480.51959 16.50989,12.00719 0,-27.01618"
       id="path3729"
       inkscape:connector-curvature="0" />
    <path
       style="fill:#00ff00"
       d="m 312.62198,484.67912 -4.87792,-3.84438 0,-29.90921 0,-29.9092 5.13039,0 c 9.48833,0 9.22259,-0.84382 8.15775,25.90435 -0.53372,13.40668 -1.04027,28.25935 -1.12567,33.00595 -0.0854,4.74659 -0.66183,8.62268 -1.28096,8.61352 -0.61912,-0.009 -3.32074,-1.74662 -6.00359,-3.86103 l 0,0 z"
       id="path3731"
       inkscape:connector-curvature="0" />
    <path
       style="fill:#00ff00"
       d="m 264.15319,524.66936 c 2.93239,-4.11816 3.24394,-7.48862 4.68238,-50.65534 2.0358,-61.09374 2.14199,-61.80847 8.57593,-57.72656 1.86612,1.18392 1.07874,39.5764 -1.96449,95.78847 -0.74658,13.79016 -0.56774,15.33143 1.85201,15.96056 1.47312,0.383 -1.58887,0.77472 -6.80442,0.87048 l -9.48282,0.1741 3.14141,-4.41171 z"
       id="path3733"
       inkscape:connector-curvature="0" />
    <path
       style="fill:#00ff00"
       d="m 246.2055,418.75686 c -0.9688,-4.66668 -1.5336,-8.65271 -1.25511,-8.85784 0.27849,-0.20513 3.37682,0.22588 6.88517,0.9578 6.3472,1.32417 6.37882,1.36381 6.37882,7.99649 0,5.57038 -0.47309,6.66572 -2.87904,6.66572 -1.58348,0 -3.88915,0.38761 -5.12371,0.86136 -1.72263,0.66103 -2.65433,-1.11195 -4.00613,-7.62353 z"
       id="path3735"
       inkscape:connector-curvature="0" />
    <path
       style="fill:none;stroke:#000000;stroke-width:1px;stroke-linecap:butt;stroke-linejoin:miter;stroke-opacity:1"
       d="m 639.38306,406.97553 15.00899,-1.5009 0,-51.03057 -19.51169,-42.02518 -34.52068,-36.02158 -40.52428,-25.51529 -60.03597,-19.51169 -45.02697,-6.00359 -46.52788,-1.5009 -13.50809,-1.5009 -52.53147,1.5009 -61.53687,9.00539 -51.03057,22.51349 -48.02878,31.51888 -18.01079,19.51169"
       id="path3745"
       inkscape:connector-curvature="0" />
    <path
       style="fill:none;stroke:#000000;stroke-width:1px;stroke-linecap:butt;stroke-linejoin:miter;stroke-opacity:1"
       d="m 162.09711,312.41888 c -1.0006,2.0012 -2.0012,4.0024 -3.0018,6.0036 l -9.00539,40.52428 6.0036,57.03416 22.51348,4.5027"
       id="path3747"
       inkscape:connector-curvature="0" />
    <path
       style="fill:none;stroke:#000000;stroke-width:1px;stroke-linecap:butt;stroke-linejoin:miter;stroke-opacity:1"
       d="m 177.1061,387.46384 -12.00719,0 -1.5009,-37.52248 15.00899,-39.02338 16.5099,-15.00899 60.03596,-33.01978 69.04137,-19.51169 72.04316,-3.0018 91.55485,6.0036 61.53686,21.01258 51.03058,36.02159 30.01798,36.02158 3.0018,16.50989"
       id="path3749"
       inkscape:connector-curvature="0" />
    <path
       style="fill:none;stroke:#000000;stroke-width:1px;stroke-linecap:butt;stroke-linejoin:miter;stroke-opacity:1"
       d="m 159.09531,315.42068 7.5045,-13.50809"
       id="path3751"
       inkscape:connector-curvature="0" />
    <path
       style="fill:#666666"
       d="m 165.60952,416.85179 c -9.18977,-1.76895 -8.28661,0.80081 -11.79265,-33.55375 l -2.46906,-24.19357 3.9568,-17.83161 c 2.17623,-9.80738 4.74671,-20.19552 5.71217,-23.08475 0.96546,-2.88924 1.64163,-5.68559 1.50261,-6.21413 -0.13902,-0.52854 4.03668,-5.98817 9.27933,-12.13253 13.72411,-16.08457 49.37439,-39.18158 84.34805,-54.6472 l 25.33155,-11.2018 30.01798,-4.26822 c 38.89049,-5.5298 64.67752,-6.61249 108.47212,-4.55432 54.01643,2.53857 73.001,5.52736 109.09422,17.175 28.4705,9.18771 31.1813,10.39976 50.60183,22.62506 18.17737,11.44273 22.47358,15.00336 37.63524,31.19159 16.5205,17.63905 17.43922,18.97864 26.42902,38.53644 l 9.31357,20.26214 -0.42094,24.76483 -0.42094,24.76484 -5.62837,0.46583 -5.62837,0.46582 0.0809,-7.21986 c 0.0446,-3.97095 0.64515,-12.60696 1.33475,-19.19115 1.37085,-13.08859 0.43402,-17.36123 -5.1088,-23.29986 -1.93771,-2.07608 -3.98576,-6.72234 -4.58475,-10.40101 -0.89616,-5.50384 -3.70119,-9.78162 -16.28926,-24.84175 C 602.2554,303.57359 599.3484,300.9886 575.65456,284.25675 l -25.51529,-18.0181 -31.51888,-10.68507 -31.51888,-10.68507 -47.27833,-2.85994 c -38.80669,-2.34748 -53.32948,-2.61523 -81.04855,-1.49423 l -33.77023,1.36571 -36.02158,10.22887 -36.02159,10.22887 -29.37886,16.29319 c -17.61987,9.77178 -32.73242,19.29689 -37.75744,23.79768 -7.8629,7.04263 -8.84903,8.73636 -16.02273,27.51984 l -7.64417,20.01534 0.98102,19.38326 0.98102,19.38327 6.52288,0 c 6.36073,0 6.52261,0.12127 6.51221,4.87792 -0.0189,8.62558 -1.89525,25.14637 -2.83295,24.94289 -0.49975,-0.10852 -4.42046,-0.87318 -8.71269,-1.69939 l 0,0 z"
       id="path3753"
       inkscape:connector-curvature="0" />
  </g>
</svg>
